<mxfile host="Electron" modified="2024-01-25T12:42:37.928Z" agent="Mozilla/5.0 (Windows NT 10.0; Win64; x64) AppleWebKit/537.36 (KHTML, like Gecko) draw.io/22.1.21 Chrome/120.0.6099.109 Electron/28.1.0 Safari/537.36" etag="9iNGGNjB6BJNgw3F72Y-" version="22.1.21" type="device">
  <diagram id="C5RBs43oDa-KdzZeNtuy" name="Page-1">
    <mxGraphModel dx="2307" dy="866" grid="1" gridSize="10" guides="1" tooltips="1" connect="1" arrows="1" fold="1" page="1" pageScale="1" pageWidth="827" pageHeight="1169" math="0" shadow="0">
      <root>
        <mxCell id="WIyWlLk6GJQsqaUBKTNV-0" />
        <mxCell id="WIyWlLk6GJQsqaUBKTNV-1" parent="WIyWlLk6GJQsqaUBKTNV-0" />
        <mxCell id="8adbqdnK-QkPUIYqeCb0-43" style="edgeStyle=orthogonalEdgeStyle;rounded=0;orthogonalLoop=1;jettySize=auto;html=1;entryX=0.5;entryY=0;entryDx=0;entryDy=0;" edge="1" parent="WIyWlLk6GJQsqaUBKTNV-1" source="8adbqdnK-QkPUIYqeCb0-0" target="8adbqdnK-QkPUIYqeCb0-4">
          <mxGeometry relative="1" as="geometry" />
        </mxCell>
        <mxCell id="8adbqdnK-QkPUIYqeCb0-0" value="Создание записи&lt;br&gt;" style="rounded=0;whiteSpace=wrap;html=1;" vertex="1" parent="WIyWlLk6GJQsqaUBKTNV-1">
          <mxGeometry x="-150" y="250" width="120" height="60" as="geometry" />
        </mxCell>
        <mxCell id="8adbqdnK-QkPUIYqeCb0-15" style="edgeStyle=orthogonalEdgeStyle;rounded=0;orthogonalLoop=1;jettySize=auto;html=1;exitX=0.5;exitY=1;exitDx=0;exitDy=0;entryX=0.5;entryY=0;entryDx=0;entryDy=0;" edge="1" parent="WIyWlLk6GJQsqaUBKTNV-1" source="8adbqdnK-QkPUIYqeCb0-1" target="8adbqdnK-QkPUIYqeCb0-8">
          <mxGeometry relative="1" as="geometry" />
        </mxCell>
        <mxCell id="8adbqdnK-QkPUIYqeCb0-1" value="Редактирование записи&lt;br&gt;" style="rounded=0;whiteSpace=wrap;html=1;" vertex="1" parent="WIyWlLk6GJQsqaUBKTNV-1">
          <mxGeometry x="270" y="150" width="120" height="60" as="geometry" />
        </mxCell>
        <mxCell id="8adbqdnK-QkPUIYqeCb0-33" style="edgeStyle=orthogonalEdgeStyle;rounded=0;orthogonalLoop=1;jettySize=auto;html=1;entryX=0.5;entryY=0;entryDx=0;entryDy=0;" edge="1" parent="WIyWlLk6GJQsqaUBKTNV-1" source="8adbqdnK-QkPUIYqeCb0-2" target="8adbqdnK-QkPUIYqeCb0-11">
          <mxGeometry relative="1" as="geometry" />
        </mxCell>
        <mxCell id="8adbqdnK-QkPUIYqeCb0-2" value="Удаление записи&lt;br&gt;" style="rounded=0;whiteSpace=wrap;html=1;" vertex="1" parent="WIyWlLk6GJQsqaUBKTNV-1">
          <mxGeometry x="600" y="130" width="120" height="60" as="geometry" />
        </mxCell>
        <mxCell id="8adbqdnK-QkPUIYqeCb0-20" style="edgeStyle=orthogonalEdgeStyle;rounded=0;orthogonalLoop=1;jettySize=auto;html=1;entryX=0.5;entryY=0;entryDx=0;entryDy=0;" edge="1" parent="WIyWlLk6GJQsqaUBKTNV-1" source="8adbqdnK-QkPUIYqeCb0-4" target="8adbqdnK-QkPUIYqeCb0-5">
          <mxGeometry relative="1" as="geometry" />
        </mxCell>
        <mxCell id="8adbqdnK-QkPUIYqeCb0-4" value="Выбор даты&lt;br&gt;" style="whiteSpace=wrap;html=1;" vertex="1" parent="WIyWlLk6GJQsqaUBKTNV-1">
          <mxGeometry x="-150" y="340" width="120" height="60" as="geometry" />
        </mxCell>
        <mxCell id="8adbqdnK-QkPUIYqeCb0-21" style="edgeStyle=orthogonalEdgeStyle;rounded=0;orthogonalLoop=1;jettySize=auto;html=1;" edge="1" parent="WIyWlLk6GJQsqaUBKTNV-1" source="8adbqdnK-QkPUIYqeCb0-5" target="8adbqdnK-QkPUIYqeCb0-6">
          <mxGeometry relative="1" as="geometry" />
        </mxCell>
        <mxCell id="8adbqdnK-QkPUIYqeCb0-5" value="Выбор времени" style="whiteSpace=wrap;html=1;" vertex="1" parent="WIyWlLk6GJQsqaUBKTNV-1">
          <mxGeometry x="-150" y="430" width="120" height="60" as="geometry" />
        </mxCell>
        <mxCell id="8adbqdnK-QkPUIYqeCb0-42" style="edgeStyle=orthogonalEdgeStyle;rounded=0;orthogonalLoop=1;jettySize=auto;html=1;exitX=0.5;exitY=1;exitDx=0;exitDy=0;entryX=0.5;entryY=0;entryDx=0;entryDy=0;" edge="1" parent="WIyWlLk6GJQsqaUBKTNV-1" source="8adbqdnK-QkPUIYqeCb0-6" target="8adbqdnK-QkPUIYqeCb0-22">
          <mxGeometry relative="1" as="geometry" />
        </mxCell>
        <mxCell id="8adbqdnK-QkPUIYqeCb0-6" value="Подтверждение записи&lt;br&gt;" style="whiteSpace=wrap;html=1;" vertex="1" parent="WIyWlLk6GJQsqaUBKTNV-1">
          <mxGeometry x="-150" y="530" width="120" height="60" as="geometry" />
        </mxCell>
        <mxCell id="8adbqdnK-QkPUIYqeCb0-40" style="edgeStyle=orthogonalEdgeStyle;rounded=0;orthogonalLoop=1;jettySize=auto;html=1;" edge="1" parent="WIyWlLk6GJQsqaUBKTNV-1" source="8adbqdnK-QkPUIYqeCb0-7" target="8adbqdnK-QkPUIYqeCb0-39">
          <mxGeometry relative="1" as="geometry" />
        </mxCell>
        <mxCell id="8adbqdnK-QkPUIYqeCb0-7" value="Просмотр записи&lt;br&gt;" style="rounded=0;whiteSpace=wrap;html=1;" vertex="1" parent="WIyWlLk6GJQsqaUBKTNV-1">
          <mxGeometry x="-520" y="130" width="120" height="60" as="geometry" />
        </mxCell>
        <mxCell id="8adbqdnK-QkPUIYqeCb0-16" style="edgeStyle=orthogonalEdgeStyle;rounded=0;orthogonalLoop=1;jettySize=auto;html=1;exitX=0;exitY=0.5;exitDx=0;exitDy=0;entryX=0.5;entryY=0;entryDx=0;entryDy=0;" edge="1" parent="WIyWlLk6GJQsqaUBKTNV-1" source="8adbqdnK-QkPUIYqeCb0-8" target="8adbqdnK-QkPUIYqeCb0-9">
          <mxGeometry relative="1" as="geometry" />
        </mxCell>
        <mxCell id="8adbqdnK-QkPUIYqeCb0-17" style="edgeStyle=orthogonalEdgeStyle;rounded=0;orthogonalLoop=1;jettySize=auto;html=1;exitX=1;exitY=0.5;exitDx=0;exitDy=0;entryX=0.5;entryY=0;entryDx=0;entryDy=0;" edge="1" parent="WIyWlLk6GJQsqaUBKTNV-1" source="8adbqdnK-QkPUIYqeCb0-8" target="8adbqdnK-QkPUIYqeCb0-10">
          <mxGeometry relative="1" as="geometry" />
        </mxCell>
        <mxCell id="8adbqdnK-QkPUIYqeCb0-8" value="Выбор записи&lt;br&gt;" style="whiteSpace=wrap;html=1;" vertex="1" parent="WIyWlLk6GJQsqaUBKTNV-1">
          <mxGeometry x="270" y="250" width="120" height="60" as="geometry" />
        </mxCell>
        <mxCell id="8adbqdnK-QkPUIYqeCb0-26" style="edgeStyle=orthogonalEdgeStyle;rounded=0;orthogonalLoop=1;jettySize=auto;html=1;" edge="1" parent="WIyWlLk6GJQsqaUBKTNV-1" source="8adbqdnK-QkPUIYqeCb0-9" target="8adbqdnK-QkPUIYqeCb0-24">
          <mxGeometry relative="1" as="geometry" />
        </mxCell>
        <mxCell id="8adbqdnK-QkPUIYqeCb0-9" value="Выбор времени" style="whiteSpace=wrap;html=1;" vertex="1" parent="WIyWlLk6GJQsqaUBKTNV-1">
          <mxGeometry x="150" y="350" width="120" height="60" as="geometry" />
        </mxCell>
        <mxCell id="8adbqdnK-QkPUIYqeCb0-27" style="edgeStyle=orthogonalEdgeStyle;rounded=0;orthogonalLoop=1;jettySize=auto;html=1;" edge="1" parent="WIyWlLk6GJQsqaUBKTNV-1" source="8adbqdnK-QkPUIYqeCb0-10" target="8adbqdnK-QkPUIYqeCb0-25">
          <mxGeometry relative="1" as="geometry" />
        </mxCell>
        <mxCell id="8adbqdnK-QkPUIYqeCb0-10" value="Выбор даты&lt;br&gt;" style="whiteSpace=wrap;html=1;" vertex="1" parent="WIyWlLk6GJQsqaUBKTNV-1">
          <mxGeometry x="390" y="350" width="120" height="60" as="geometry" />
        </mxCell>
        <mxCell id="8adbqdnK-QkPUIYqeCb0-11" value="Выбор записи&lt;br&gt;" style="whiteSpace=wrap;html=1;" vertex="1" parent="WIyWlLk6GJQsqaUBKTNV-1">
          <mxGeometry x="600" y="220" width="120" height="60" as="geometry" />
        </mxCell>
        <mxCell id="8adbqdnK-QkPUIYqeCb0-35" style="edgeStyle=orthogonalEdgeStyle;rounded=0;orthogonalLoop=1;jettySize=auto;html=1;entryX=0.5;entryY=0;entryDx=0;entryDy=0;" edge="1" parent="WIyWlLk6GJQsqaUBKTNV-1" source="8adbqdnK-QkPUIYqeCb0-12" target="8adbqdnK-QkPUIYqeCb0-13">
          <mxGeometry relative="1" as="geometry" />
        </mxCell>
        <mxCell id="8adbqdnK-QkPUIYqeCb0-12" value="Удаление записи&lt;br&gt;" style="whiteSpace=wrap;html=1;" vertex="1" parent="WIyWlLk6GJQsqaUBKTNV-1">
          <mxGeometry x="610" y="310" width="120" height="60" as="geometry" />
        </mxCell>
        <mxCell id="8adbqdnK-QkPUIYqeCb0-37" style="edgeStyle=orthogonalEdgeStyle;rounded=0;orthogonalLoop=1;jettySize=auto;html=1;entryX=0.5;entryY=0;entryDx=0;entryDy=0;" edge="1" parent="WIyWlLk6GJQsqaUBKTNV-1" source="8adbqdnK-QkPUIYqeCb0-13" target="8adbqdnK-QkPUIYqeCb0-36">
          <mxGeometry relative="1" as="geometry" />
        </mxCell>
        <mxCell id="8adbqdnK-QkPUIYqeCb0-13" value="Подтверждение удаления&lt;br&gt;" style="whiteSpace=wrap;html=1;" vertex="1" parent="WIyWlLk6GJQsqaUBKTNV-1">
          <mxGeometry x="610" y="410" width="120" height="60" as="geometry" />
        </mxCell>
        <mxCell id="8adbqdnK-QkPUIYqeCb0-22" value="Отправка смс о изменении записи&lt;br&gt;" style="whiteSpace=wrap;html=1;" vertex="1" parent="WIyWlLk6GJQsqaUBKTNV-1">
          <mxGeometry x="-150" y="620" width="120" height="60" as="geometry" />
        </mxCell>
        <mxCell id="8adbqdnK-QkPUIYqeCb0-23" value="Отправка смс о изменении записи&lt;br&gt;" style="whiteSpace=wrap;html=1;" vertex="1" parent="WIyWlLk6GJQsqaUBKTNV-1">
          <mxGeometry x="270" y="560" width="120" height="60" as="geometry" />
        </mxCell>
        <mxCell id="8adbqdnK-QkPUIYqeCb0-32" style="edgeStyle=orthogonalEdgeStyle;rounded=0;orthogonalLoop=1;jettySize=auto;html=1;entryX=0;entryY=0.5;entryDx=0;entryDy=0;" edge="1" parent="WIyWlLk6GJQsqaUBKTNV-1" source="8adbqdnK-QkPUIYqeCb0-24" target="8adbqdnK-QkPUIYqeCb0-23">
          <mxGeometry relative="1" as="geometry" />
        </mxCell>
        <mxCell id="8adbqdnK-QkPUIYqeCb0-24" value="Подтверждение времени&lt;br&gt;" style="whiteSpace=wrap;html=1;" vertex="1" parent="WIyWlLk6GJQsqaUBKTNV-1">
          <mxGeometry x="150" y="460" width="120" height="60" as="geometry" />
        </mxCell>
        <mxCell id="8adbqdnK-QkPUIYqeCb0-31" style="edgeStyle=orthogonalEdgeStyle;rounded=0;orthogonalLoop=1;jettySize=auto;html=1;entryX=1;entryY=0.5;entryDx=0;entryDy=0;" edge="1" parent="WIyWlLk6GJQsqaUBKTNV-1" source="8adbqdnK-QkPUIYqeCb0-25" target="8adbqdnK-QkPUIYqeCb0-23">
          <mxGeometry relative="1" as="geometry" />
        </mxCell>
        <mxCell id="8adbqdnK-QkPUIYqeCb0-25" value="Подтверждение даты&lt;br&gt;" style="whiteSpace=wrap;html=1;" vertex="1" parent="WIyWlLk6GJQsqaUBKTNV-1">
          <mxGeometry x="390" y="460" width="120" height="60" as="geometry" />
        </mxCell>
        <mxCell id="8adbqdnK-QkPUIYqeCb0-34" style="edgeStyle=orthogonalEdgeStyle;rounded=0;orthogonalLoop=1;jettySize=auto;html=1;entryX=0.418;entryY=0.011;entryDx=0;entryDy=0;entryPerimeter=0;" edge="1" parent="WIyWlLk6GJQsqaUBKTNV-1" source="8adbqdnK-QkPUIYqeCb0-11" target="8adbqdnK-QkPUIYqeCb0-12">
          <mxGeometry relative="1" as="geometry" />
        </mxCell>
        <mxCell id="8adbqdnK-QkPUIYqeCb0-36" value="Отправка смс о удалении записи" style="whiteSpace=wrap;html=1;" vertex="1" parent="WIyWlLk6GJQsqaUBKTNV-1">
          <mxGeometry x="610" y="510" width="120" height="60" as="geometry" />
        </mxCell>
        <mxCell id="8adbqdnK-QkPUIYqeCb0-38" value="Вся информация о записи" style="rounded=0;whiteSpace=wrap;html=1;" vertex="1" parent="WIyWlLk6GJQsqaUBKTNV-1">
          <mxGeometry x="-680" y="220" width="120" height="60" as="geometry" />
        </mxCell>
        <mxCell id="8adbqdnK-QkPUIYqeCb0-39" value="Оставшееся кол-во времени до занятия" style="rounded=0;whiteSpace=wrap;html=1;" vertex="1" parent="WIyWlLk6GJQsqaUBKTNV-1">
          <mxGeometry x="-350" y="220" width="120" height="60" as="geometry" />
        </mxCell>
        <mxCell id="8adbqdnK-QkPUIYqeCb0-41" style="edgeStyle=orthogonalEdgeStyle;rounded=0;orthogonalLoop=1;jettySize=auto;html=1;entryX=0.39;entryY=-0.069;entryDx=0;entryDy=0;entryPerimeter=0;" edge="1" parent="WIyWlLk6GJQsqaUBKTNV-1" source="8adbqdnK-QkPUIYqeCb0-7" target="8adbqdnK-QkPUIYqeCb0-38">
          <mxGeometry relative="1" as="geometry" />
        </mxCell>
      </root>
    </mxGraphModel>
  </diagram>
</mxfile>
